<?xml version="1.0" encoding="UTF-8" standalone="no"?>
<!-- Created with Inkscape (http://www.inkscape.org/) -->

<svg
   xmlns:dc="http://purl.org/dc/elements/1.1/"
   xmlns:cc="http://creativecommons.org/ns#"
   xmlns:rdf="http://www.w3.org/1999/02/22-rdf-syntax-ns#"
   xmlns:svg="http://www.w3.org/2000/svg"
   xmlns="http://www.w3.org/2000/svg"
   xmlns:sodipodi="http://sodipodi.sourceforge.net/DTD/sodipodi-0.dtd"
   xmlns:inkscape="http://www.inkscape.org/namespaces/inkscape"
   width="2in"
   height="2in"
   viewBox="0 0 50.8 50.799999"
   version="1.1"
   id="svg1516"
   inkscape:version="0.92.3 (2405546, 2018-03-11)"
   sodipodi:docname="serratus_square_black.svg"
   inkscape:export-filename="/home/artem/Desktop/serratus/img/logo/serratus_square_black.png"
   inkscape:export-xdpi="299.5"
   inkscape:export-ydpi="299.5">
  <defs
     id="defs1510">
    <clipPath
       clipPathUnits="userSpaceOnUse"
       id="clipPath192-1-8-5">
      <path
         d="M 0,1080 H 1919.99 V 0 H 0 Z"
         id="path190-2-4-6"
         inkscape:connector-curvature="0" />
    </clipPath>
  </defs>
  <sodipodi:namedview
     id="base"
     pagecolor="#ffffff"
     bordercolor="#666666"
     borderopacity="1.0"
     inkscape:pageopacity="0.0"
     inkscape:pageshadow="2"
     inkscape:zoom="3.6499875"
     inkscape:cx="8.0193481"
     inkscape:cy="41.330384"
     inkscape:document-units="mm"
     inkscape:current-layer="flowRoot1168-1-5"
     showgrid="false"
     units="in"
     inkscape:window-width="1600"
     inkscape:window-height="873"
     inkscape:window-x="0"
     inkscape:window-y="27"
     inkscape:window-maximized="1" />
  <metadata
     id="metadata1513">
    <rdf:RDF>
      <cc:Work
         rdf:about="">
        <dc:format>image/svg+xml</dc:format>
        <dc:type
           rdf:resource="http://purl.org/dc/dcmitype/StillImage" />
        <dc:title />
      </cc:Work>
    </rdf:RDF>
  </metadata>
  <g
     inkscape:label="Layer 1"
     inkscape:groupmode="layer"
     id="layer1"
     transform="translate(0,-246.20002)">
    <g
       id="g2154"
       transform="matrix(1.1539284,0,0,1.1539284,-0.71005982,-39.942273)">
      <g
         id="g2193"
         transform="matrix(0.9972616,0,0,0.99725982,0.39314431,0.64342449)">
        <rect
           y="248.03732"
           x="0.25157213"
           height="44.086884"
           width="44.086884"
           id="rect1347"
           style="fill:#333333;fill-opacity:1;fill-rule:evenodd;stroke:#000000;stroke-width:0.05752993px;stroke-linecap:butt;stroke-linejoin:miter;stroke-opacity:1" />
        <g
           style="fill:#ffffff"
           transform="matrix(0.06517018,0,0,-0.06517018,79.084096,289.10397)"
           id="g28-9-5">
          <g
             style="fill:#ffffff"
             id="g186-3-0"
             transform="translate(-1809.6334,-248.20386)">
            <g
               style="fill:#ffffff"
               clip-path="url(#clipPath192-1-8-5)"
               id="g188-6-3">
              <g
                 style="fill:#ffffff"
                 transform="translate(638.33668,439.896)"
                 id="g194-0-6">
                <path
                   inkscape:connector-curvature="0"
                   id="path196-6-1"
                   style="fill:#ffffff;fill-opacity:1;fill-rule:nonzero;stroke:none"
                   d="m 0,0 h -12.083 c -1.792,0 -3.244,1.452 -3.244,3.244 0,1.792 1.452,3.244 3.244,3.244 H -1.396 L 21.81,30.983 c 0.612,0.647 1.463,1.013 2.355,1.013 h 4.471 l 5.943,3.565 c 0.503,0.303 1.08,0.463 1.668,0.463 h 5.368 l 4.421,4.419 c 0.282,0.282 0.612,0.509 0.976,0.671 l 12.083,5.369 c 0.414,0.185 0.863,0.28 1.317,0.28 h 8.924 l 22.065,35.934 v 12.508 c 0,1.085 0.541,2.097 1.445,2.699 l 12.082,8.055 c 0.813,0.543 1.83,0.69 2.766,0.397 l 21.009,-6.564 h 6.217 l 11.132,11.132 c 0.608,0.609 1.433,0.951 2.294,0.951 h 8.375 l 12.586,8.811 c 0.73,0.509 1.633,0.7 2.507,0.521 0.872,-0.178 1.633,-0.705 2.104,-1.46 l 11.19,-17.905 17.255,18.405 c 0.629,0.672 1.495,1.081 2.439,1.024 0.922,-0.02 1.791,-0.432 2.39,-1.132 l 3.297,-3.846 c 0.198,0.196 0.42,0.37 0.667,0.513 1,0.583 2.234,0.585 3.238,0.011 l 7.749,-4.427 25.219,15.132 c 0.709,0.425 1.553,0.563 2.36,0.389 l 29.384,-6.389 17.594,13.825 c 1.154,0.907 2.775,0.926 3.95,0.045 l 8.491,-6.368 15.463,15.462 c 1.168,1.171 3.028,1.273 4.319,0.24 l 12.596,-10.077 c 3.188,-0.072 9.547,0.427 12.61,3.288 1.188,1.111 1.744,2.464 1.744,4.256 0,0.371 0.064,0.741 0.188,1.091 0.758,2.12 3.405,6.002 8.519,7.098 8.735,1.874 20.74,-5.048 35.676,-20.572 l 22.676,-18.676 c 3.505,-2.553 10.19,-5.848 12.919,-4.459 1.664,0.846 1.913,4.112 1.913,5.983 0,1.034 0.492,2.006 1.327,2.616 0.227,0.167 22.919,16.33 43.411,-10.023 3.014,-4.353 7.744,-8.711 9.842,-8.268 0.921,0.197 2.312,2.114 3.203,6.875 0.197,1.043 0.891,1.926 1.859,2.361 0.967,0.435 2.091,0.37 2.998,-0.177 2.744,-1.647 26.105,-15.938 31.703,-28.458 4.44,-1.752 11.747,-5.06 15.43,-9.075 l 7.857,8.729 c 0.612,0.679 1.482,1.069 2.397,1.074 h 0.015 c 0.908,0 1.776,-0.382 2.39,-1.052 l 44.303,-48.329 c 1.21,-1.321 1.121,-3.373 -0.198,-4.584 -1.319,-1.209 -3.371,-1.122 -4.583,0.199 l -41.891,45.697 -9.373,-10.414 c -0.136,-0.164 -0.281,-0.325 -0.437,-0.48 -1.24,-1.245 -3.25,-1.268 -4.526,-0.06 -1.236,1.172 -1.349,3.089 -0.29,4.396 -1.219,1.965 -7.924,5.794 -14.726,8.346 -0.916,0.343 -1.63,1.082 -1.939,2.011 -2.568,7.703 -17.168,18.497 -25.787,24.121 -1.533,-4.332 -3.9,-6.858 -7.064,-7.527 -7.481,-1.586 -14.987,8.707 -16.416,10.787 -14.083,18.098 -28.717,11.89 -33.079,9.411 -0.347,-4.959 -2.162,-8.301 -5.408,-9.947 -7.225,-3.666 -17.785,3.63 -19.829,5.128 l -22.966,18.906 c -0.098,0.08 -0.192,0.166 -0.278,0.258 -17.489,18.218 -26.17,19.63 -29.769,18.859 -2.162,-0.464 -3.22,-1.932 -3.598,-2.599 -0.175,-3.254 -1.479,-6.097 -3.8,-8.258 -6.091,-5.673 -17.202,-5.053 -18.452,-4.964 -0.655,0.047 -1.281,0.291 -1.795,0.702 l -11.157,8.927 -15.4,-15.399 c -1.14,-1.141 -2.949,-1.269 -4.239,-0.302 l -8.748,6.561 -16.837,-13.229 c -0.76,-0.598 -1.744,-0.825 -2.693,-0.619 l -29.621,6.44 -25.747,-15.449 c -1.007,-0.605 -2.261,-0.615 -3.28,-0.035 l -4.552,2.602 c -0.084,-1.27 -0.906,-2.382 -2.111,-2.828 -1.272,-0.474 -2.705,-0.101 -3.588,0.932 l -5.7,6.649 -17.663,-18.839 c -0.688,-0.735 -1.684,-1.106 -2.682,-1.01 -1.002,0.097 -1.902,0.655 -2.436,1.509 l -11.613,18.581 -10.624,-7.437 c -0.546,-0.381 -1.196,-0.586 -1.861,-0.586 h -8.055 L 138.557,94.255 c -0.609,-0.609 -1.433,-0.951 -2.294,-0.951 h -8.055 c -0.328,0 -0.654,0.05 -0.967,0.148 l -20.003,6.25 -9.349,-6.233 V 81.78 c 0,-0.598 -0.166,-1.187 -0.48,-1.697 L 73.916,41.822 c -0.59,-0.961 -1.637,-1.547 -2.765,-1.547 H 61.101 L 50.197,35.429 45.253,30.486 c -0.608,-0.608 -1.434,-0.95 -2.294,-0.95 h -5.813 l -5.942,-3.565 c -0.505,-0.303 -1.082,-0.463 -1.67,-0.463 H 25.56 L 2.354,1.013 C 1.742,0.366 0.891,0 0,0" />
              </g>
              <g
                 style="fill:#ffffff;fill-opacity:1"
                 transform="translate(744.76638,528.6133)"
                 id="g198-2-0">
                <path
                   inkscape:connector-curvature="0"
                   id="path200-6-6"
                   style="fill:#ffffff;fill-opacity:1;fill-rule:nonzero;stroke:none"
                   d="m 0,0 17.453,-13.425 -4.028,-6.712 v -10.74 l -5.369,-2.685 9.397,-14.768 -9.397,-8.055 v -8.055 l 14.766,-18.795 6.713,2.686 4.028,-2.686 v -9.397 l 9.397,-6.712 8.055,6.712 2.685,14.767 -9.397,10.74 1.343,10.74 8.054,-6.712 8.055,6.712 6.713,4.028 -6.713,6.712 -5.37,5.371 -8.055,1.342 -9.397,9.397 14.767,9.398 8.055,5.37 -2.685,6.712 -6.713,5.37 v -12.082 l -9.397,1.342 v 5.37 l -13.425,5.37 z" />
              </g>
              <g
                 style="fill:#ffffff;fill-opacity:1"
                 transform="translate(923.61598,542.0386)"
                 id="g202-1-3">
                <path
                   inkscape:connector-curvature="0"
                   id="path204-8-2"
                   style="fill:#ffffff;fill-opacity:1;fill-rule:nonzero;stroke:none"
                   d="m 0,0 13.425,14.767 13.426,-6.712 14.766,16.11 10.74,-8.055 c 0,0 26.85,-8.055 29.536,12.082 l 42.96,-24.165 -14.768,5.37 14.768,-20.137 20.136,-17.452 c 0,0 -2.684,-16.11 -24.164,-5.371 0,0 10.739,2.686 1.342,6.713 0,0 -14.768,1.343 -9.397,13.425 0,0 -9.398,5.37 -14.768,0 l 13.426,-14.767 1.342,-9.398 c 0,0 -16.11,14.767 -32.22,10.74 0,0 -8.055,12.082 -4.028,21.48 0,0 -20.137,5.37 -25.507,0 0,0 -17.452,-5.37 -24.164,1.342 0,0 -18.795,8.055 -26.851,4.028" />
              </g>
              <g
                 style="fill:#ffffff;fill-opacity:1"
                 transform="translate(1079.868,532.3433)"
                 id="g206-7-0">
                <path
                   inkscape:connector-curvature="0"
                   id="path208-9-6"
                   style="fill:#ffffff;fill-opacity:1;fill-rule:nonzero;stroke:none"
                   d="m 0,0 c 0,0 14.768,16.11 33.563,-8.055 0,0 20.137,-17.452 25.506,-2.685 0,0 21.481,-13.425 24.165,-24.165 l 16.111,-10.74 h 6.712 l 8.055,10.74 33.563,-41.617 -6.713,-14.768 c 0,0 -13.425,12.083 -24.165,6.713 -10.74,-5.37 2.685,8.055 2.685,8.055 0,0 -29.535,-12.082 -45.645,-5.371 -16.109,6.713 0,6.713 0,6.713 l -25.507,14.768 -8.056,-4.028 -2.684,6.712 4.027,5.371 -8.054,10.74 c 0,0 -1.343,14.767 -9.398,13.425 -8.055,-1.343 4.027,6.712 4.027,6.712 0,0 -14.767,6.712 -14.767,10.74 z" />
              </g>
              <g
                 style="fill:#ffffff;fill-opacity:1"
                 transform="translate(871.71368,544.2818)"
                 id="g210-2-1">
                <path
                   inkscape:connector-curvature="0"
                   id="path212-0-5"
                   style="fill:#ffffff;fill-opacity:1;fill-rule:nonzero;stroke:none"
                   d="M 0,0 19.464,8.65 43.253,0 l 8.65,-17.301 51.905,-12.976 c 0,0 -47.579,0 -51.905,-23.789 0,0 4.326,-34.602 -58.39,-32.44 0,0 -41.091,-6.488 -32.441,19.464 0,0 23.789,21.626 15.139,36.765 z" />
              </g>
              <g
                 aria-label="Serratus"
                 transform="matrix(0.4872582,0,0,-0.4872582,557.49456,789.76624)"
                 style="font-style:normal;font-variant:normal;font-weight:normal;font-stretch:normal;font-size:18.66666603px;line-height:125%;font-family:Arial;-inkscape-font-specification:Arial;letter-spacing:2.5999999px;word-spacing:0px;fill:#ffffff;fill-opacity:1;stroke:none;stroke-width:1px;stroke-linecap:butt;stroke-linejoin:miter;stroke-opacity:1"
                 id="flowRoot1168-1-5">
                <path
                   d="m 285.26653,797.76816 -7.73333,17.06666 c -9.06667,-11.73333 -22.93333,-16 -37.06667,-16 -38.93333,0 -62.13333,26.4 -62.13333,50.66667 0,12.53333 6.4,25.6 16.26667,33.06666 6.93333,5.06667 16.53333,8.53334 31.46666,9.86667 17.6,1.33333 31.46667,2.4 31.46667,17.6 0,14.13333 -13.6,29.33333 -41.06667,29.33333 -10.66666,0 -28.8,-2.66667 -34.13333,-16 -1.6,-4 -1.33333,-5.33333 -1.33333,-18.4 h -20.53333 c -2.93334,24.53333 -4.8,32 -13.86667,55.73333 l 21.86667,3.46667 5.33333,-17.6 c 9.33333,9.33333 18.13333,16.53333 42.4,16.53333 49.86666,0 65.59999,-33.6 65.59999,-53.86666 0,-17.86667 -9.6,-27.46667 -19.2,-33.06667 -10.66666,-5.86666 -21.33333,-6.66666 -31.46666,-7.2 -10.93333,-0.8 -28.53333,-1.86666 -28.53333,-19.73333 0,-14.66667 15.46666,-27.46667 38.93333,-27.46667 11.46667,0 28,3.2 28,22.4 0,5.33334 -0.8,9.33334 -1.6,13.06667 l 20.26666,3.2 c 4.53334,-25.33333 5.86667,-33.06667 17.33334,-56.53333 z"
                   style="font-style:italic;font-variant:normal;font-weight:bold;font-stretch:normal;font-size:266.66665649px;font-family:Courier;-inkscape-font-specification:'Courier Bold Italic';fill:#ffffff;fill-opacity:1"
                   id="path837" />
                <path
                   d="m 441.36237,922.30148 c -21.86667,9.6 -40.53334,17.33334 -60.26667,17.33334 -33.6,0 -34.13333,-22.13334 -34.4,-32.53334 h 104.53333 l 1.6,-5.06666 c 2.4,-7.46667 3.73333,-13.06667 3.73333,-20 0,-24.26667 -17.06666,-47.73333 -54.39999,-47.73333 -46.13333,0 -79.73333,38.66666 -79.73333,77.59999 0,31.2 21.6,51.2 57.33333,51.2 25.86666,0 54.13333,-12.26666 68.26666,-19.2 z m -87.73333,-37.06666 c 4.26666,-6.93333 17.59999,-28 46.93333,-28 31.2,0 31.46666,21.86667 31.73333,28 z"
                   style="font-style:italic;font-variant:normal;font-weight:bold;font-stretch:normal;font-size:266.66665649px;font-family:Courier;-inkscape-font-specification:'Courier Bold Italic';fill:#ffffff;fill-opacity:1"
                   id="path839" />
                <path
                   d="m 501.72487,838.56815 -4.8,21.86667 h 30.13333 l -16.26666,77.06666 h -32.26667 l -4.8,21.86667 H 578.2582 l 4.8,-21.86667 h -49.06666 l 9.6,-45.33333 c 8.53333,-9.86666 29.33333,-33.6 48.79999,-33.6 10.93334,0 12.53334,9.33334 13.6,15.73334 l 24.53334,-3.2 c -1.06667,-6.13334 -5.6,-35.46667 -36.26667,-35.46667 -10.13333,0 -25.86667,2.66667 -41.86667,17.86667 l -0.53333,-0.53334 3.2,-14.4 z"
                   style="font-style:italic;font-variant:normal;font-weight:bold;font-stretch:normal;font-size:266.66665649px;font-family:Courier;-inkscape-font-specification:'Courier Bold Italic';fill:#ffffff;fill-opacity:1"
                   id="path841" />
                <path
                   d="m 664.22069,838.56815 -4.8,21.86667 h 30.13333 l -16.26666,77.06666 h -32.26667 l -4.8,21.86667 h 104.53333 l 4.8,-21.86667 h -49.06667 l 9.6,-45.33333 c 8.53334,-9.86666 29.33334,-33.6 48.8,-33.6 10.93334,0 12.53334,9.33334 13.6,15.73334 l 24.53333,-3.2 c -1.06666,-6.13334 -5.6,-35.46667 -36.26666,-35.46667 -10.13333,0 -25.86667,2.66667 -41.86667,17.86667 l -0.53333,-0.53334 3.2,-14.4 z"
                   style="font-style:italic;font-variant:normal;font-weight:bold;font-stretch:normal;font-size:266.66665649px;font-family:Courier;-inkscape-font-specification:'Courier Bold Italic';fill:#ffffff;fill-opacity:1"
                   id="path843" />
                <path
                   d="m 926.1832,879.10149 c 0.26667,-1.6 1.86667,-8.8 1.86667,-14.13334 0,-21.06666 -18.93333,-32 -42.13333,-32 -21.6,0 -39.73334,6.66667 -52.26667,11.2 -0.26666,0 -1.06666,0.26667 -1.86666,0.8 -1.86667,0.53334 -2.13334,0.8 -4,1.33334 l 4.8,22.13333 c 2.66666,-1.06667 3.2,-1.06667 7.73333,-2.93333 13.06666,-5.06667 28.8,-9.6 42.66666,-9.6 6.93334,0 20.8,1.6 20.8,11.46666 0,0.8 -0.26666,2.66667 -0.53333,4.8 -0.53333,3.46667 -0.53333,3.73334 -0.53333,7.73334 -10.4,-1.33334 -18.93334,-2.4 -30.66667,-2.4 -49.06666,0 -69.86666,28.8 -69.86666,50.13333 0,19.2 15.46666,35.46666 39.46666,35.46666 19.2,0 35.2,-8 45.86667,-13.33333 l -2.13334,9.6 h 46.66667 l 4.8,-21.86667 h -22.93333 z m -32.53333,41.33333 c -9.6,7.2 -34.13333,19.73333 -50.66667,19.73333 -7.19999,0 -16.53333,-4.8 -16.53333,-13.6 0,-7.2 7.2,-26.66666 45.33333,-26.66666 10.4,0 17.86667,1.06666 25.86667,2.13333 z"
                   style="font-style:italic;font-variant:normal;font-weight:bold;font-stretch:normal;font-size:266.66665649px;font-family:Courier;-inkscape-font-specification:'Courier Bold Italic';fill:#ffffff;fill-opacity:1"
                   id="path845" />
                <path
                   d="m 1019.6123,803.90149 -8,37.86666 h -17.59997 l -4.8,22.4 h 17.86667 l -9.06667,42.4 c -3.46667,16.26667 -4.26667,20.8 -4.26667,25.86667 0,14.4 13.06664,30.66666 39.20004,30.66666 15.7333,0 35.2,-5.06666 61.6,-16.26666 v -24.26667 c -36.8,14.4 -47.4667,17.6 -61.0667,17.6 -2.6667,0 -16.2667,-0.26667 -16.2667,-11.46667 0,-4.53333 1.8667,-13.06666 3.2,-19.73333 l 9.8667,-44.8 h 57.3333 l 4.5334,-22.4 h -57.0667 l 7.7333,-37.86666 z"
                   style="font-style:italic;font-variant:normal;font-weight:bold;font-stretch:normal;font-size:266.66665649px;font-family:Courier;-inkscape-font-specification:'Courier Bold Italic';fill:#ffffff;fill-opacity:1"
                   id="path847" />
                <path
                   d="m 1138.6415,838.56815 -4.5333,21.86667 h 20.8 l -10.6667,50.13333 c -0.2667,1.33333 -1.8667,9.06667 -1.8667,14.93333 0,11.2 6.1334,37.6 37.3334,37.6 18.9333,0 30.6666,-8 36.5333,-11.73333 l -2.1333,8 h 44.2666 l 4.8,-21.86667 h -20.8 l 20.8,-98.93333 h -45.3333 l -4.8,21.86667 h 21.8667 l -12.5334,59.2 c -13.6,13.06666 -28.8,20.53333 -42.1333,20.53333 -11.7333,0 -14.4,-10.4 -14.4,-14.4 0,-4.8 1.3333,-11.46667 1.6,-13.06667 l 16,-74.13333 z"
                   style="font-style:italic;font-variant:normal;font-weight:bold;font-stretch:normal;font-size:266.66665649px;font-family:Courier;-inkscape-font-specification:'Courier Bold Italic';fill:#ffffff;fill-opacity:1"
                   id="path849" />
                <path
                   d="m 1409.6707,832.43482 -4.8,13.6 c -11.7333,-11.73333 -33.6,-11.73333 -35.7333,-11.73333 -31.2,0 -57.0667,18.93333 -57.0667,42.66666 0,29.86667 34.9333,32 53.0667,32.8 1.3333,0.26667 7.7333,0.53333 8.8,0.53333 19.4666,1.06667 19.4666,4.53334 19.4666,8 0,13.86667 -19.7333,21.06667 -38.4,21.06667 -2.1333,0 -26.9333,0 -30.6666,-13.6 -0.8,-2.93333 -0.8,-4 -0.8,-12.8 l -21.3334,1.33333 c -1.0666,17.33334 -2.9333,28.26667 -9.6,46.13334 l 20.8,2.93333 4.2667,-13.6 c 10.9333,9.06667 24.8,12.53333 38.6667,12.53333 32,0 61.3333,-18.93333 61.3333,-44.8 0,-28.26666 -30.1333,-29.59999 -52,-30.93333 -22.1333,-1.33333 -29.3333,-4 -29.3333,-11.46666 0,-8.26667 12.5333,-17.86667 32.8,-17.86667 7.4666,0 18.1333,1.6 22.9333,4.26667 5.3333,2.93333 6.1333,6.4 6.1333,12.26666 0,2.66667 0,4 -0.5333,6.13334 h 20.8 c 0.5333,-10.66667 1.8667,-21.33334 9.8667,-44.8 z"
                   style="font-style:italic;font-variant:normal;font-weight:bold;font-stretch:normal;font-size:266.66665649px;font-family:Courier;-inkscape-font-specification:'Courier Bold Italic';fill:#ffffff;fill-opacity:1"
                   id="path851" />
              </g>
            </g>
          </g>
        </g>
      </g>
    </g>
  </g>
</svg>
